<?xml version="1.0" encoding="UTF-8"?>
<svg width="800px" height="800px" viewBox="0 0 800 800" version="1.1" xmlns="http://www.w3.org/2000/svg">
    <g stroke="none" stroke-width="1" fill="none" fill-rule="evenodd">
        <path d="M400,50 C500,50 580,130 580,230 C580,280 560,320 520,350 L650,450 C690,480 710,520 710,570 C710,670 630,750 530,750 L270,750 C170,750 90,670 90,570 C90,520 110,480 150,450 L280,350 C240,320 220,280 220,230 C220,130 300,50 400,50 Z" fill="currentColor" fill-opacity="0.1"/>
        <path d="M400,100 C475,100 535,160 535,235 C535,275 515,310 485,335 L585,415 C615,440 630,470 630,510 C630,585 570,645 495,645 L305,645 C230,645 170,585 170,510 C170,470 185,440 215,415 L315,335 C285,310 265,275 265,235 C265,160 325,100 400,100 Z" fill="currentColor" fill-opacity="0.2"/>
        <circle cx="350" cy="200" r="20" fill="currentColor"/>
        <path d="M400,180 L400,220 Q400,240 380,240 L360,240 Q340,240 340,220 L340,180 Q340,160 360,160 L380,160 Q400,160 400,180 Z" fill="currentColor"/>
    </g>
</svg>
